<svg xmlns="http://www.w3.org/2000/svg" viewBox="0 0 603 182">
  <!-- Amazon smile arrow -->
  <path fill="#FF9900" d="M374.00 142.06C338.94 168.07 287.56 182.00 243.68 182.00C181.42 182.00 125.55 159.08 83.10 121.28C79.76 118.24 82.72 114.12 86.76 116.50C132.26 143.02 188.52 159.08 246.64 159.08C285.42 159.08 327.86 151.16 367.34 134.76C373.24 132.20 378.22 138.58 374.00 142.06Z"/>
  <path fill="#FF9900" d="M386.34 127.90C381.84 122.18 355.80 125.30 344.08 126.70C340.64 127.10 340.14 124.10 343.24 121.90C364.12 107.38 398.58 111.56 402.42 116.22C406.28 120.92 401.34 155.42 381.80 171.60C378.90 174.06 376.12 172.76 377.40 169.56C381.62 159.28 390.86 133.66 386.34 127.90Z"/>
  <!-- Amazon text -->
  <path fill="#2D2D2D" d="M344.76 20.72L344.76 6.40C344.76 4.30 346.34 2.90 348.24 2.90L409.30 2.90C411.28 2.90 412.86 4.34 412.86 6.40L412.86 18.86C412.82 20.84 410.72 23.44 407.54 27.84L375.68 73.04C387.74 72.74 400.48 74.56 411.32 80.68C413.78 82.06 414.42 84.08 414.60 86.06L414.60 101.30C414.60 103.32 412.40 105.66 410.08 104.46C389.74 93.86 362.50 92.72 340.08 104.58C337.94 105.68 335.72 103.38 335.72 101.36L335.72 86.82C335.72 84.58 335.76 80.76 337.98 77.48L374.66 25.24L348.30 25.24C346.32 25.24 344.76 23.84 344.76 21.80L344.76 20.72Z"/>
  <path fill="#2D2D2D" d="M124.94 108.16L106.66 108.16C104.86 108.02 103.42 106.66 103.28 104.94L103.28 6.60C103.28 4.66 104.92 3.10 106.94 3.10L123.98 3.10C125.82 3.18 127.30 4.60 127.44 6.36L127.44 19.44L127.80 19.44C132.14 7.42 140.14 1.70 151.16 1.70C162.36 1.70 169.46 7.42 174.52 19.44C178.84 7.42 188.64 1.70 199.24 1.70C206.70 1.70 214.88 4.72 219.94 11.66C225.66 19.44 224.52 30.82 224.52 40.56L224.48 104.68C224.48 106.62 222.84 108.20 220.82 108.20L202.58 108.20C200.68 108.06 199.18 106.52 199.18 104.68L199.18 49.98C199.18 46.46 199.54 36.72 198.76 33.38C197.62 27.66 193.82 26.16 189.10 26.16C185.22 26.16 181.16 28.82 179.30 32.88C177.44 36.94 177.62 43.96 177.62 49.98L177.62 104.68C177.62 106.62 175.98 108.20 173.96 108.20L155.72 108.20C153.80 108.06 152.32 106.52 152.32 104.68L152.28 49.98C152.28 38.70 154.14 25.90 142.22 25.90C130.12 25.90 130.66 38.34 130.66 49.98L130.66 104.68C130.66 106.62 129.02 108.20 127.00 108.20L124.94 108.16Z"/>
  <path fill="#2D2D2D" d="M448.80 1.70C474.48 1.70 488.44 25.90 488.44 56.76C488.44 86.62 473.04 110.12 448.80 110.12C423.62 110.12 410.02 85.92 410.02 55.76C410.02 25.42 423.80 1.70 448.80 1.70ZM448.98 22.64C436.52 22.64 435.80 39.56 435.80 50.12C435.80 60.70 435.62 89.12 448.80 89.12C461.80 89.12 462.52 70.76 462.52 59.68C462.52 52.36 462.18 43.60 459.82 36.76C457.82 30.86 454.18 22.64 448.98 22.64Z"/>
  <path fill="#2D2D2D" d="M520.28 108.16L502.10 108.16C500.20 108.02 498.70 106.48 498.70 104.64L498.66 6.24C498.82 4.46 500.42 3.06 502.30 3.06L519.22 3.06C520.86 3.14 522.22 4.22 522.64 5.74L522.64 21.18L523.00 21.18C528.06 8.48 534.44 1.70 546.72 1.70C554.90 1.70 562.90 4.54 568.14 12.68C572.98 20.20 572.98 33.02 572.98 42.08L572.98 105.24C572.74 106.92 571.18 108.20 569.34 108.20L551.00 108.20C549.30 108.06 547.88 106.84 547.72 105.24L547.72 49.26C547.72 38.34 549.20 25.72 538.34 25.72C534.44 25.72 530.84 28.40 528.82 32.28C526.24 37.22 525.88 42.12 525.88 49.26L525.88 104.68C525.84 106.62 524.18 108.20 522.14 108.20L520.28 108.16Z"/>
  <path fill="#2D2D2D" d="M310.00 61.44C310.00 68.28 310.18 73.98 306.94 80.12C304.36 85.06 300.10 88.06 295.42 88.06C289.10 88.06 285.44 83.08 285.44 75.80C285.44 61.56 298.18 58.94 310.00 58.94L310.00 61.44ZM333.64 108.00C332.34 109.16 330.44 109.24 328.94 108.40C322.52 103.04 321.38 100.60 317.76 95.48C306.82 106.64 299.10 110.06 284.90 110.06C268.14 110.06 255.14 99.70 255.14 79.20C255.14 63.20 263.72 52.30 276.10 47.02C286.84 42.30 301.78 41.60 310.00 40.72L310.00 38.40C310.00 34.04 310.36 28.86 307.84 25.10C305.64 21.72 301.42 20.36 297.72 20.36C290.82 20.36 284.66 23.90 283.16 31.26C282.86 32.86 281.66 34.44 280.06 34.52L262.38 32.60C260.94 32.28 259.34 31.10 259.76 28.92C263.56 8.80 281.72 2.56 298.00 2.56C306.34 2.56 317.18 4.88 323.88 11.28C332.22 19.06 331.44 29.44 331.44 40.88L331.44 72.00C331.44 80.00 334.80 83.54 337.94 87.92C339.02 89.48 339.26 91.32 337.88 92.44C334.46 95.28 328.30 100.56 325.00 103.34L324.82 103.18Z"/>
  <path fill="#2D2D2D" d="M74.00 61.44C74.00 68.28 74.18 73.98 70.94 80.12C68.36 85.06 64.14 88.06 59.42 88.06C53.10 88.06 49.48 83.08 49.48 75.80C49.48 61.56 62.22 58.94 74.00 58.94L74.00 61.44ZM97.64 108.00C96.34 109.16 94.44 109.24 92.94 108.40C86.52 103.04 85.42 100.60 81.78 95.48C70.82 106.64 63.14 110.06 48.94 110.06C32.14 110.06 19.18 99.70 19.18 79.20C19.18 63.20 27.72 52.30 40.14 47.02C50.84 42.30 65.82 41.60 74.00 40.72L74.00 38.40C74.00 34.04 74.36 28.86 71.88 25.10C69.64 21.72 65.46 20.36 61.76 20.36C54.86 20.36 48.70 23.90 47.20 31.26C46.90 32.86 45.70 34.44 44.10 34.52L26.42 32.60C24.98 32.28 23.38 31.10 23.80 28.92C27.56 8.80 45.76 2.56 62.00 2.56C70.34 2.56 81.22 4.88 87.88 11.28C96.22 19.06 95.48 29.44 95.48 40.88L95.48 72.00C95.48 80.00 98.84 83.54 101.94 87.92C103.06 89.48 103.26 91.32 101.88 92.44C98.46 95.28 92.34 100.56 89.04 103.34L88.82 103.18Z"/>
</svg>