<svg xmlns="http://www.w3.org/2000/svg" viewBox="0 0 602 182">
  <path fill="#FF9900" d="M373.64 141.95c-34.01 25.08-83.34 38.46-125.80 38.46-59.56 0-113.21-22.03-153.75-58.65-3.19-2.88-.33-6.81 3.50-4.57 43.78 25.47 97.94 40.81 153.94 40.81 37.76 0 79.31-7.83 117.53-24.01 5.77-2.44 10.60 3.79 4.58 7.96z"/>
  <path fill="#FF9900" d="M386.09 127.58c-4.35-5.57-28.83-2.63-39.83-1.33-3.35.40-3.87-2.50-.85-4.60 19.51-13.72 51.50-9.76 55.24-5.16 3.75 4.63-.98 36.75-19.28 52.09-2.82 2.36-5.50 1.10-4.25-2.03 4.12-10.28 13.17-33.37 8.97-38.97z"/>
  <path fill="#fff" d="M347.13 20.87V6.86c0-2.14 1.62-3.57 3.57-3.57h63.14c2.02 0 3.65 1.45 3.65 3.55v11.99c-.02 2.02-1.73 4.66-4.76 8.85L381 72.06c12.06-.29 24.80 1.51 35.74 7.70 2.47 1.40 3.14 3.45 3.33 5.47v15.28c0 2.06-2.27 4.47-4.65 3.22-19.44-10.19-45.26-11.30-66.76.89-2.19 1.13-4.49-1.19-4.49-3.25V86.89c0-2.30.03-6.22 2.33-9.72l37.40-53.66h-32.55c-2.02 0-3.65-1.43-3.65-3.53l.03-1.11zM127.38 108.16h-19.23c-1.83-.14-3.29-1.51-3.43-3.27V7.10c0-1.97 1.64-3.55 3.67-3.55h17.92c1.86.09 3.35 1.51 3.49 3.30V19.65h.36c4.67-12.79 13.47-18.77 25.32-18.77 12.02 0 19.53 5.98 24.92 18.77 4.65-12.79 15.19-18.77 26.50-18.77 8.04 0 16.84 3.32 22.21 10.75 6.07 8.26 4.83 20.26 4.83 30.79v62.77c0 1.97-1.64 3.55-3.67 3.55h-19.18c-1.90-.14-3.43-1.66-3.43-3.55V53.27c0-4.14.36-14.47-.54-18.38-1.43-6.53-5.71-8.36-11.25-8.36-4.63 0-9.47 3.09-11.46 8.04-1.99 4.95-1.79 13.24-1.79 18.70v51.92c0 1.97-1.64 3.55-3.67 3.55h-19.18c-1.92-.14-3.43-1.66-3.43-3.55l-.04-51.92c0-10.94 1.79-27.06-11.79-27.06-13.66 0-13.12 15.71-13.12 27.06v51.92c0 1.97-1.64 3.55-3.67 3.55zM450.62 1.73c28.54 0 43.98 24.52 43.98 55.69 0 30.12-17.06 54.00-43.98 54.00-28.00 0-43.26-24.52-43.26-55.01 0-30.66 15.44-54.68 43.26-54.68zm.16 20.17c-14.20 0-15.10 19.36-15.10 31.42 0 12.08-.18 37.89 14.94 37.89 14.94 0 15.64-20.81 15.64-33.49 0-8.36-.36-18.38-2.88-26.37-2.16-6.93-6.45-9.45-12.60-9.45zM547.68 108.16h-19.14c-1.92-.14-3.43-1.66-3.43-3.55l-.02-97.67c.16-1.79 1.70-3.21 3.62-3.21h17.82c1.68.08 3.07 1.17 3.49 2.70v14.94h.36c5.49-13.38 13.18-19.73 26.72-19.73 8.60 0 16.98 3.09 22.39 11.62 5.00 7.93 5.00 21.27 5.00 30.96v60.81c-.24 1.70-1.79 3.06-3.62 3.06h-19.27c-1.73-.14-3.14-1.40-3.37-3.06V52.22c0-10.94 1.27-26.97-11.97-26.97-4.63 0-8.90 3.09-11.02 7.81-2.70 5.94-3.05 11.86-3.05 19.16v52.39c-.04 1.97-1.70 3.55-3.73 3.55zM310.06 61.70c0 7.48.18 13.72-3.60 20.37-3.05 5.39-7.90 8.71-13.28 8.71-7.38 0-11.69-5.62-11.69-13.91 0-16.38 14.67-19.36 28.57-19.36v4.19zm19.36 46.82c-1.27 1.13-3.10 1.21-4.54.45-6.38-5.30-7.52-7.76-11.02-12.81-10.53 10.73-17.98 13.93-31.63 13.93-16.15 0-28.71-9.97-28.71-29.93 0-15.58 8.44-26.17 20.49-31.35 10.43-4.57 24.99-5.39 36.14-6.64V39.51c0-4.19.32-9.14-2.14-12.77-2.14-3.27-6.22-4.63-9.83-4.63-6.68 0-12.63 3.43-14.10 10.53-.30 1.59-1.45 3.16-3.03 3.24l-17.51-1.88c-1.43-.32-3.01-1.47-2.61-3.65 3.90-20.53 22.41-26.72 39.01-26.72 8.49 0 19.59 2.27 26.28 8.71 8.49 8.13 7.68 18.97 7.68 30.79v27.90c0 8.38 3.48 12.06 6.75 16.59 1.13 1.62 1.38 3.55-.04 4.76-3.55 2.97-9.85 8.49-13.30 11.58l-.11-.25zM73.62 61.70c0 7.48.18 13.72-3.60 20.37-3.05 5.39-7.88 8.71-13.28 8.71-7.38 0-11.67-5.62-11.67-13.91 0-16.38 14.67-19.36 28.55-19.36v4.19zm19.36 46.82c-1.27 1.13-3.10 1.21-4.54.45-6.38-5.30-7.52-7.76-11.02-12.81-10.53 10.73-17.98 13.93-31.63 13.93C29.64 110.09 17.08 100.12 17.08 80.16c0-15.58 8.44-26.17 20.49-31.35 10.43-4.57 25.01-5.39 36.14-6.64V39.51c0-4.19.32-9.14-2.16-12.77-2.12-3.27-6.22-4.63-9.81-4.63-6.68 0-12.65 3.43-14.12 10.53-.30 1.59-1.43 3.16-3.01 3.24L27.10 33.99c-1.43-.32-3.01-1.47-2.59-3.65C28.41 9.81 46.91 3.62 63.51 3.62c8.49 0 19.59 2.27 26.28 8.71 8.49 8.13 7.68 18.97 7.68 30.79v27.90c0 8.38 3.48 12.06 6.75 16.59 1.13 1.62 1.38 3.55-.04 4.76-3.55 2.97-9.85 8.49-13.30 11.58l-.11-.25z"/>
</svg>