<svg xmlns="http://www.w3.org/2000/svg" viewBox="0 0 300 122">
  <path fill="#E53238" d="M37.64 29.89C16.85 29.89 0 40.98 0 64.38C0 84.29 13.16 97.89 38.86 97.89C58.09 97.89 69.18 89.56 69.18 89.56L63.49 78.47C63.49 78.47 53.73 85.96 39.74 85.96C26.58 85.96 17.41 78.47 16.57 65.31H70.84C70.84 65.31 71.29 61.28 71.29 58.92C71.29 40.53 59.37 29.89 37.64 29.89ZM16.85 55.28C18.37 43.80 26.75 41.16 36.81 41.16C48.29 41.16 54.56 47.23 55.12 55.28H16.85Z"/>
  <path fill="#0064D2" d="M72.44 0V92.38C72.44 92.38 83.31 97.89 99.53 97.89C123.49 97.89 140.49 85.57 140.49 62.89C140.49 43.35 127.33 29.89 105.22 29.89C92.51 29.89 84.18 36.33 84.18 36.33V0H72.44ZM102.42 41.83C114.51 41.83 123.98 49.81 123.98 63.64C123.98 79.36 113.84 86.18 101.53 86.18C93.18 86.18 86.84 82.82 86.84 82.82V49.04C86.84 49.04 92.74 41.83 102.42 41.83Z"/>
  <path fill="#F5AF02" d="M158.22 29.89C139.93 29.89 127.64 43.67 127.64 63.53C127.64 83.29 140.15 97.89 161.57 97.89C173.08 97.89 181.16 93.02 186.33 87.12L180.57 78.24C176.33 82.77 170.76 86.18 162.87 86.18C150.91 86.18 143.77 78.24 143.07 66.84H192.22C192.22 66.84 192.66 62.53 192.66 59.96C192.66 41.47 181.53 29.89 158.22 29.89ZM143.33 55.58C144.78 44.71 152.31 41.16 161.28 41.16C171.76 41.16 178.01 47.23 178.55 55.58H143.33Z"/>
  <path fill="#86B817" d="M226.31 31.42L195.13 31.42 219.09 93.58C219.09 93.58 213.16 107.89 207.07 118.47C207.07 118.47 212.65 122.00 220.51 122.00L258.18 31.42H246.44L226.31 80.33 207.96 31.42ZM197.96 31.42L226.31 97.44C226.31 97.44 221.76 107.89 215.38 118.47L227.82 122.00L265.49 31.42Z"/>
</svg>