<svg xmlns="http://www.w3.org/2000/svg" viewBox="0 0 120 48" fill="none">
  <path d="M14.9 12.3c-8.3 0-14.9 4.3-14.9 13.3 0 7.7 5.2 13.0 15.4 13.0 7.6 0 12.0-3.2 12.0-3.2l-2.2-4.4s-3.8 3.0-9.5 3.0c-5.2 0-9.4-2.9-9.8-8.1h22.2c0 0 .2-1.6.2-2.5 0-7.8-4.7-11.1-13.4-11.1zm-9.1 10.5c.6-4.5 3.9-6.5 8.7-6.5 5.3 0 7.5 2.8 7.8 6.5H5.8z" fill="#E53238"/>
  <path d="M28.8 1.1v35.6s4.3 2.1 10.7 2.1c9.5 0 16.2-4.8 16.2-17.0 0-7.5-5.2-11.9-13.9-11.9-5.1 0-8.4 2.5-8.4 2.5V1.1h-4.6zm4.6 15.3s3.0-3.2 8.0-3.2c6.0 0 9.7 3.5 9.7 9.5 0 8.2-5.1 13.2-12.1 13.2-3.5 0-5.6-1.3-5.6-1.3V16.4z" fill="#0064D2"/>
  <path d="M58.0 12.3c-4.2 0-7.7 1.3-10.3 3.3l2.5 3.9c2.1-1.6 4.6-2.9 7.8-2.9 4.5 0 6.5 2.2 6.5 5.6v1.0c-1.9-.7-4.4-1.2-7.2-1.2-8.2 0-13.3 3.3-13.3 9.5 0 5.8 4.5 7.9 8.9 7.9 4.6 0 8.0-2.1 11.6-5.4v4.7h4.1V22.1c0-6.5-3.2-9.8-11.6-9.8zm5.5 16.0c-1.1 3.5-4.7 7.4-9.5 7.4-3.4 0-5.5-1.7-5.5-4.6 0-3.6 3.2-5.6 9.3-5.6 2.2 0 4.2.5 5.7 1.2v1.6z" fill="#F5AF02"/>
  <path d="M72.9 12.8l9.5 19.0c0 0 1.8-4.1 1.8-4.1L78.4 12.8h-5.5zm10.4-.5l12.6 26.1s-5.4 9.7-5.4 9.7h5.6L108.9 12.3h-5.1l-9.2 19.5-10.4-19.5h-5.9z" fill="#86B817"/>
</svg>