<svg xmlns="http://www.w3.org/2000/svg" viewBox="0 0 400 160" fill="#F1641E">
  <path d="M72 20c-2 0-3.2 1.4-3.2 3.6V80h38.4c6.8 0 11.2-3.6 13.6-14.4h5v40.8h-5c-1.8-11.2-6.8-14.4-13.6-14.4H68.8v53.2c0 8 3.6 10 13.6 10h20.4c20.4 0 27.2-6.8 34-26.4h5.6L136 152H25.6v-5.2c10.4-.8 15.2-3.2 15.2-11.2V32c0-7.6-4.8-10.4-15.2-11.2V16h110L138 44h-5.6c-4.4-15.2-11.2-21.6-27.2-21.6H72z"/>
  <path d="M191.6 56.4V46h-10.4v-18l-4.4 1.4-10 3.2-2.4.8v15.8h-14.4v10.4h14.4v55.2c0 14.4 6.8 21.6 20.8 21.6 6.8 0 12.8-2.4 16-4l-2.4-9.2c-2.4 1.2-5.6 2.4-8.4 2.4-6.4 0-8.4-3.6-8.4-12.2V56.4h10.4z"/>
  <path d="M241.2 93.2c0 15.6-8 30.8-24.8 30.8-9.2 0-13.6-5.6-13.6-14.4 0-16 15.6-21.6 38.4-21.6v5.2zm29.6 23.6c-2.4 0-3.6-2.4-3.6-8V64c0-18-11.2-26.4-30.8-26.4-14.4 0-27.2 6.8-34 13.6l8.4 10c6.8-5.6 13.6-10 23.6-10 11.2 0 17.2 5.6 17.2 16v6.8c-31.6 1.2-54.4 11.2-54.4 34 0 14.4 9.2 23.6 25.2 23.6 13.6 0 22.8-6.8 29.6-15.6 1.2 10 6.8 15.6 16 15.6 5.6 0 10.4-2.4 13.6-4.8l-2.4-9.2c-1.2.8-2.4 1.2-3.2 1.2z"/>
  <path d="M304.4 128.4l26.4-50.8-24.8-43.2h17.2l16 29.6 16-29.6h16l-23.6 43.2 26.4 50.8h-17.2l-17.6-34-18 34h-16.8z"/>
</svg>