<svg xmlns="http://www.w3.org/2000/svg" viewBox="0 0 100 40" fill="#F1641E">
  <path d="M14.5 5.5c-.4 0-.7.3-.7.8v11.5h8.5c1.5 0 2.5-.8 3-3.2h1.1v9h-1.1c-.4-2.5-1.5-3.2-3-3.2h-8.5v11.8c0 1.8.8 2.2 3 2.2h4.5c4.5 0 6-1.5 7.5-5.8h1.2L28 35.2H6.2v-1.1c2.3-.2 3.3-.7 3.3-2.5V8.8c0-1.7-1-2.3-3.3-2.5V5.2H28l.6 6.2h-1.2c-1-3.4-2.5-4.8-6-4.8h-6.9z"/>
  <path d="M40.5 15.5v-2.3h-2.3V8.5l-1 .3-2.2.7-.5.2v3.5h-3.2v2.3h3.2v12.2c0 3.2 1.5 4.8 4.6 4.8 1.5 0 2.8-.5 3.5-.9l-.5-2c-.5.3-1.2.5-1.8.5-1.4 0-1.8-.8-1.8-2.7V15.5h4z"/>
  <path d="M53.2 24.8c0 3.5-1.8 6.8-5.5 6.8-2 0-3-1.2-3-3.2 0-3.5 3.5-4.8 8.5-4.8v1.2zm6.5 5.2c-.5 0-.8-.5-.8-1.8V18c0-4-2.5-5.8-6.8-5.8-3.2 0-6 1.5-7.5 3l1.8 2.2c1.5-1.2 3-2.2 5.2-2.2 2.5 0 3.8 1.2 3.8 3.5v1.5c-7 .3-12 2.5-12 7.5 0 3.2 2 5.2 5.5 5.2 3 0 5-1.5 6.5-3.5.3 2.2 1.5 3.5 3.5 3.5 1.2 0 2.3-.5 3-1l-.5-2c-.3.2-.5.3-.7.3z"/>
  <path d="M63 32.8l5.8-11.2-5.5-9.5h3.8l3.5 6.5 3.5-6.5h3.5l-5.2 9.5 5.8 11.2h-3.8l-3.8-7.5-4 7.5H63z"/>
  <path d="M78.8 12.2l5.5 14.5 5.5-14.5h3.8L85 33.5c-1.5 4-3 5.8-5.5 5.8-1.2 0-2.2-.3-2.8-.5l.5-2.5c.5.2 1 .3 1.5.3 1.5 0 2.2-.8 3-2.8l.5-1.2-8-20.4h4.6z"/>
</svg>