<svg xmlns="http://www.w3.org/2000/svg" viewBox="0 0 446 128" fill="none">
  <!-- Shopping bag -->
  <path d="M103.5 22.8c-.1-.7-.7-1.1-1.2-1.1s-10.5-.2-10.5-.2-7-6.9-7.8-7.7c-.8-.8-2.3-.6-2.9-.4 0 0-1.5.5-4 1.2-2.4-6.9-6.6-13.2-14-13.2h-.6C60.5-.3 58.1 0 56 1.6c-5.9 4.6-10.4 13.8-13 19.9-6.8 2.1-11.5 3.6-11.6 3.6-3.6 1.1-3.7 1.2-4.2 4.6-.3 2.6-9.7 74.9-9.7 74.9l72.7 12.6 33.6-8.3S103.6 23.5 103.5 22.8zM77 17l-6.5 2c.1-3.5-.3-8.5-2.1-13 5.5 1 7.5 7.3 8.6 11zM66.2 20.1c-5.4 1.7-11.4 3.5-17.3 5.4 1.7-6.4 4.8-12.9 8.6-17.1 1.4-1.6 3.4-3.3 5.7-4.3 2.3 4.7 3.1 11.3 3 16zM56.5 1.7c1.8 0 3.3.6 4.6 1.9-2.1 1.1-4.2 2.8-6.1 5.1-5.3 5.9-9.3 15-11 22.7C39.4 33.1 35 34.6 31 35.9 34.5 18.8 46 2 56.5 1.7z" fill="#95BF47"/>
  <path d="M102.3 21.7c-.5 0-10.5-.2-10.5-.2s-7-6.9-7.8-7.7c-.3-.3-.7-.4-1-.5L82 112.4l33.6-8.3s-12-82-12.1-82.7c-.1-.7-.7-1.1-1.2-1.1z" fill="#5E8E3E"/>
  <path d="M63.5 42.3l-5 18.5s-4.4-2.3-9.7-2.3c-7.8.4-7.8 5.4-7.8 6.7.4 7.2 19.5 8.8 20.6 25.6.8 13.2-7 22.3-18.3 23-13.5.9-21-7.1-21-7.1l2.9-12.1s7.5 5.6 13.5 5.3c3.9-.2 5.3-3.5 5.2-5.7-.6-9.3-16.1-8.8-17-24.3-.8-13 7.7-26.2 26.5-27.4 7.3-.4 10.9 1.4 10.9 1.4z" fill="#fff"/>
  <!-- shopify text -->
  <text x="128" y="88" font-family="'Helvetica', 'Arial', sans-serif" font-size="64" font-weight="700" font-style="italic" fill="#2D2D2D">shopify</text>
</svg>