<svg xmlns="http://www.w3.org/2000/svg" viewBox="0 0 435 124" fill="#95BF47">
  <path d="M103.5 22.8c-.1-.7-.7-1.1-1.2-1.1s-10.5-.2-10.5-.2-7-6.9-7.8-7.7c-.8-.8-2.3-.6-2.9-.4 0 0-1.5.5-4 1.2-2.4-6.9-6.6-13.2-14-13.2h-.6C60.5-.3 58.1 0 56 1.6c-5.9 4.6-10.4 13.8-13 19.9-6.8 2.1-11.5 3.6-11.6 3.6-3.6 1.1-3.7 1.2-4.2 4.6-.3 2.6-9.7 74.9-9.7 74.9l72.7 12.6 33.6-8.3S103.6 23.5 103.5 22.8zM77 17l-6.5 2c.1-3.5-.3-8.5-2.1-13 5.5 1 7.5 7.3 8.6 11zM66.2 20.1c-5.4 1.7-11.4 3.5-17.3 5.4 1.7-6.4 4.8-12.9 8.6-17.1 1.4-1.6 3.4-3.3 5.7-4.3 2.3 4.7 3.1 11.3 3 16zM56.5 1.7c1.8 0 3.3.6 4.6 1.9-2.1 1.1-4.2 2.8-6.1 5.1-5.3 5.9-9.3 15-11 22.7C39.4 33.1 35 34.6 31 35.9 34.5 18.8 46 2 56.5 1.7z"/>
  <path d="M102.3 21.7c-.5 0-10.5-.2-10.5-.2s-7-6.9-7.8-7.7c-.3-.3-.7-.4-1-.5L82 112.4l33.6-8.3s-12-82-12.1-82.7c-.1-.7-.7-1.1-1.2-1.1z" fill="#5E8E3E"/>
  <path d="M63.5 42.3l-5 18.5s-4.4-2.3-9.7-2.3c-7.8.4-7.8 5.4-7.8 6.7.4 7.2 19.5 8.8 20.6 25.6.8 13.2-7 22.3-18.3 23-13.5.9-21-7.1-21-7.1l2.9-12.1s7.5 5.6 13.5 5.3c3.9-.2 5.3-3.5 5.2-5.7-.6-9.3-16.1-8.8-17-24.3-.8-13 7.7-26.2 26.5-27.4 7.3-.4 10.9 1.4 10.9 1.4z" fill="#fff"/>
  <g fill="#fff">
    <path d="M145.2 69.9c-4.6-2.5-7-4.6-7-7.5 0-3.7 3.3-6 8.2-6 5.8 0 11 2.5 11 2.5l4.1-12.5s-3.8-3-14.8-3c-15.4 0-26 8.8-26 21.2 0 7 5 12.4 11.6 16.2 5.4 3.1 7.3 5.3 7.3 8.5 0 3.4-2.7 6.2-7.7 6.2-7.5 0-14.5-3.9-14.5-3.9l-4.3 12.5s6.5 4.4 17.4 4.4c15.9 0 27.3-7.8 27.3-21.8 0-7.6-5.8-12.9-12.6-16.8z"/>
    <path d="M207.3 43.4c-7.6 0-13.6 3.6-18.1 9.1l-.2-.1 6.6-34.6h-19.3L164 107.9h19.3l6.7-35c2.6-13.2 9.4-21.3 15.8-21.3 4.5 0 6.3 3.1 6.3 7.5 0 2.7-.3 6.2-.9 9l-6.8 39.8h19.3l7-41.1c.8-4.5 1.4-9.8 1.4-13.4.1-10.8-5.8-18-16.5-18z"/>
    <path d="M254.4 43.4c-21 0-34.9 19-34.9 40.1 0 13.5 8.4 25.3 24.1 25.3 20.6 0 34.5-18.5 34.5-40.1 0-12.5-7.4-25.3-23.7-25.3zm-8.4 50.2c-6 0-8.4-5.1-8.4-11.5 0-10.1 5.2-27 14.4-27 6.2 0 8.1 5.3 8.1 10.5.1 10.8-5.1 28-14.1 28z"/>
    <path d="M318.6 43.4c-10.7 0-16.7 9.4-16.7 9.4h-.2l.9-8.5h-17c-1 7.4-2.8 18.7-4.6 27.1l-9.8 57.1h19.3l3.9-23h.3s3.3 1.3 9.4 1.3c20.5 0 33.9-21 33.9-42.3 0-11.7-5.2-22.1-18.4-22.1zm-14.1 49.7c-3.9 0-6.2-2.2-6.2-2.2l2.5-14.1c1.8-9.6 6.7-16 12-16 4.6 0 6.1 4.3 6.1 8.4 0 10.8-6.6 23.9-14.4 23.9z"/>
    <path d="M350.1 27.4c-5.8 0-10.5 4.6-10.5 10.6 0 5.4 3.5 9.1 8.5 9.1h.2c5.7 0 10.7-3.8 10.8-10.6 0-5.1-3.4-9.1-9-9.1z"/>
    <path d="M328.1 107.9h19.3l11.4-63h-19.4z"/>
    <path d="M394.3 44.6h-13.5l.6-3.2c1.1-6.3 4.9-11.9 11.1-11.9 3.3 0 5.9.9 5.9.9l3.8-15.1s-2.9-1.3-9.3-1.3c-6.1 0-12.1 1.7-16.8 5.7-5.9 5.1-8.7 12.3-10.1 19.7l-.5 5.2h-9l-3.1 14h9l-8.5 49.3h19.3l8.5-49.3h13.4l3.2-14z"/>
    <path d="M427.3 44.9s-12.1 30.4-17.4 47.2h-.3c-.3-5.3-4.8-47.2-4.8-47.2h-20.3l11.8 63.6c.3 1.3.2 2.1-.3 3-.9 1.7-2.6 3.3-4.5 4.5-2.4 1.6-5.1 2.6-7.1 3.3l5.3 15.5c2.6-.5 8.1-2.8 12.7-7.2 5.9-5.7 11.4-14.5 17-26.1l18.6-51.6h-10.7z"/>
  </g>
</svg>