<svg xmlns="http://www.w3.org/2000/svg" viewBox="0 0 440 120">
  <!-- Shopify bag -->
  <g transform="translate(0, 0) scale(0.95)">
    <path fill="#95BF47" d="M94.5 21.5c-.1-.6-.6-1-1.1-1s-9.5-.2-9.5-.2-6.3-6.2-7-6.9c-.7-.7-2.1-.5-2.6-.3 0 0-1.3.4-3.6 1.1-2.1-6.2-5.9-11.9-12.6-11.9h-.5C56 .7 53.8 1 52 2.4c-5.3 4.2-9.4 12.4-11.7 17.9-6.1 1.9-10.4 3.2-10.5 3.3-3.2 1-3.3 1.1-3.8 4.1-.3 2.3-8.7 67.4-8.7 67.4L82.5 107l30.3-7.5S94.6 22.1 94.5 21.5zM69.7 15.3l-5.9 1.8c.1-3.2-.3-7.7-1.9-11.7 5 .9 6.8 6.6 7.8 9.9zM60 18.1c-4.9 1.5-10.3 3.2-15.6 4.9 1.5-5.8 4.3-11.6 7.8-15.4 1.3-1.4 3.1-3 5.1-3.9 2.1 4.2 2.8 10.2 2.7 14.4zM51.4 1.5c1.6 0 3 .5 4.1 1.7-1.9 1-3.8 2.5-5.5 4.6-4.8 5.3-8.4 13.5-9.9 20.4-4.4 1.4-8.7 2.7-12.4 3.8 2.7-14.2 13-29.3 23.7-30.5z"/>
    <path fill="#5E8E3E" d="M93.4 20.5c-.5 0-9.5-.2-9.5-.2s-6.3-6.2-7-6.9c-.3-.3-.6-.4-.9-.5L75 107l30.3-7.5S93.5 22.1 93.4 21.2c-.1-.4-.5-.7-1-.7z"/>
    <path fill="#fff" d="M58 38c-4.5 16.7-4.5 16.7-4.5 16.7s-4-2.1-8.7-2.1c-7 .4-7 4.9-7 6 .4 6.5 17.6 7.9 18.6 23.1.7 11.9-6.3 20.1-16.5 20.7-12.2.8-18.9-6.4-18.9-6.4l2.6-10.9s6.8 5.1 12.2 4.8c3.5-.2 4.8-3.2 4.7-5.1-.5-8.4-14.5-7.9-15.3-21.9-.7-11.7 6.9-23.6 23.9-24.7 6.5-.5 9.8 1.2 9.8 1.2z"/>
  </g>
  <!-- shopify text -->
  <g fill="#2D2D2D">
    <path d="M140 67.5c-4.2-2.3-6.3-4.2-6.3-6.8 0-3.3 3-5.4 7.4-5.4 5.2 0 9.9 2.3 9.9 2.3l3.7-11.3s-3.4-2.7-13.3-2.7c-13.9 0-23.4 8-23.4 19.1 0 6.3 4.5 11.2 10.5 14.6 4.9 2.8 6.6 4.8 6.6 7.7 0 3.1-2.4 5.6-7 5.6-6.8 0-13.1-3.5-13.1-3.5l-3.9 11.3s5.9 4 15.7 4c14.3 0 24.6-7 24.6-19.6 0-6.8-5.2-11.6-11.4-15.3z"/>
    <path d="M196.3 43.8c-6.9 0-12.3 3.2-16.3 8.2l-.2-.1 6-31.2h-17.4L157 97.2h17.4l6-31.6c2.3-11.9 8.5-19.2 14.2-19.2 4.1 0 5.7 2.8 5.7 6.8 0 2.5-.3 5.6-.8 8.1l-6.1 35.9h17.4l6.3-37.1c.7-4.1 1.3-8.8 1.3-12.1-.1-9.7-5.3-16.2-14.9-16.2z"/>
    <path d="M245 43.8c-19 0-31.5 17.1-31.5 36.2 0 12.2 7.6 22.8 21.7 22.8 18.6 0 31.1-16.7 31.1-36.2 0-11.3-6.7-22.8-21.3-22.8zm-7.6 45.3c-5.4 0-7.6-4.6-7.6-10.4 0-9.1 4.7-24.3 13-24.3 5.6 0 7.3 4.8 7.3 9.5 0 9.7-4.6 25.2-12.7 25.2z"/>
    <path d="M307.6 43.8c-9.7 0-15.1 8.5-15.1 8.5h-.2l.8-7.7h-15.3c-.9 6.7-2.5 16.9-4.2 24.4l-8.8 51.5h17.4l3.5-20.8h.3s3 1.2 8.5 1.2c18.5 0 30.6-18.9 30.6-38.2 0-10.5-4.7-19.9-16.6-19.9zm-12.7 44.9c-3.5 0-5.6-2-5.6-2l2.3-12.7c1.6-8.7 6-14.4 10.8-14.4 4.2 0 5.5 3.9 5.5 7.6 0 9.7-5.9 21.5-13 21.5z"/>
    <path d="M340.9 25.3c-5.2 0-9.5 4.2-9.5 9.6 0 4.9 3.2 8.2 7.7 8.2h.2c5.1 0 9.7-3.4 9.8-9.6 0-4.6-3.1-8.2-8.2-8.2z"/>
    <path d="M318.7 97.2h17.4l10.3-53.4h-17.5z"/>
    <path d="M384.2 43.8h-12.1l.6-2.9c1-5.7 4.4-10.7 10-10.7 3 0 5.3.8 5.3.8l3.4-13.6s-2.6-1.2-8.4-1.2c-5.5 0-10.9 1.5-15.1 5.1-5.3 4.6-7.8 11.1-9.1 17.8l-.4 4.7h-8.1l-2.8 12.6h8.1l-7.7 44.4h17.4l7.7-44.4h12.1l2.8-12.6z"/>
    <path d="M416 44.5s-10.9 27.4-15.7 42.5h-.3c-.3-4.8-4.3-42.5-4.3-42.5h-18.3l10.6 57.3c.3 1.2.2 1.9-.3 2.7-.8 1.5-2.3 3-4.1 4.1-2.2 1.4-4.6 2.3-6.4 3l4.8 14c2.3-.5 7.3-2.5 11.5-6.5 5.3-5.1 10.3-13.1 15.3-23.5l16.8-46.5H416z"/>
  </g>
</svg>