<svg xmlns="http://www.w3.org/2000/svg" viewBox="0 0 500 120" fill="none">
  <!-- TikTok note icon -->
  <path d="M50.5 10.8h14.4c0 13.4 10.8 24.2 24.2 24.2v14.4c-9.2 0-17.8-3.2-24.2-8.8v37c0 17.8-14.4 32.2-32.2 32.2S.5 95.4.5 77.6c0-17.8 14.4-32.2 32.2-32.2 3 0 5.8.4 8.4 1.2v14.8c-2.6-1.2-5.4-1.8-8.4-1.8-10 0-18.2 8.2-18.2 18.2s8.2 18.2 18.2 18.2 18.2-8.2 18.2-18.2V10.8z" fill="#2D2D2D"/>
  <path d="M53.5 7.8h14.4c0 13.4 10.8 24.2 24.2 24.2v14.4c-9.2 0-17.8-3.2-24.2-8.8v37c0 17.8-14.4 32.2-32.2 32.2S3.5 92.4 3.5 74.6c0-17.8 14.4-32.2 32.2-32.2 3 0 5.8.4 8.4 1.2v14.8c-2.6-1.2-5.4-1.8-8.4-1.8-10 0-18.2 8.2-18.2 18.2s8.2 18.2 18.2 18.2 18.2-8.2 18.2-18.2V7.8z" fill="#25F4EE"/>
  <path d="M56.5 4.8h14.4c0 13.4 10.8 24.2 24.2 24.2v14.4c-9.2 0-17.8-3.2-24.2-8.8v37c0 17.8-14.4 32.2-32.2 32.2S6.5 89.4 6.5 71.6c0-17.8 14.4-32.2 32.2-32.2 3 0 5.8.4 8.4 1.2v14.8c-2.6-1.2-5.4-1.8-8.4-1.8-10 0-18.2 8.2-18.2 18.2s8.2 18.2 18.2 18.2 18.2-8.2 18.2-18.2V4.8z" fill="#FE2C55"/>
  <!-- TikTok text -->
  <text x="115" y="78" font-family="'Arial Black', 'Helvetica', sans-serif" font-size="58" font-weight="900" fill="#2D2D2D" letter-spacing="-1">TikTok</text>
  <!-- Shop text -->
  <text x="372" y="78" font-family="'Arial', 'Helvetica', sans-serif" font-size="48" font-weight="400" fill="#2D2D2D"> Shop</text>
</svg>