<svg xmlns="http://www.w3.org/2000/svg" viewBox="0 0 500 120">
  <!-- TikTok note - 3 layers -->
  <path d="M47.2 8h12.6c0 11.7 9.5 21.2 21.2 21.2v12.6c-8 0-15.5-2.8-21.2-7.7V66.4c0 15.6-12.6 28.2-28.2 28.2S3.4 82 3.4 66.4c0-15.6 12.6-28.2 28.2-28.2 2.6 0 5.1.4 7.4 1v12.9c-2.3-1-4.8-1.6-7.4-1.6-8.8 0-15.9 7.1-15.9 15.9s7.1 15.9 15.9 15.9 15.9-7.1 15.9-15.9V8z" fill="#25F4EE"/>
  <path d="M51.2 4h12.6c0 11.7 9.5 21.2 21.2 21.2v12.6c-8 0-15.5-2.8-21.2-7.7V62.4c0 15.6-12.6 28.2-28.2 28.2S7.4 78 7.4 62.4c0-15.6 12.6-28.2 28.2-28.2 2.6 0 5.1.4 7.4 1v12.9c-2.3-1-4.8-1.6-7.4-1.6-8.8 0-15.9 7.1-15.9 15.9s7.1 15.9 15.9 15.9 15.9-7.1 15.9-15.9V4z" fill="#FE2C55"/>
  <path d="M49.2 6h12.6c0 11.7 9.5 21.2 21.2 21.2v12.6c-8 0-15.5-2.8-21.2-7.7V64.4c0 15.6-12.6 28.2-28.2 28.2S5.4 80 5.4 64.4c0-15.6 12.6-28.2 28.2-28.2 2.6 0 5.1.4 7.4 1v12.9c-2.3-1-4.8-1.6-7.4-1.6-8.8 0-15.9 7.1-15.9 15.9s7.1 15.9 15.9 15.9 15.9-7.1 15.9-15.9V6z" fill="#010101"/>
  <!-- TikTok text -->
  <g fill="#010101">
    <path d="M122 28h-18v-12h53v12h-18v64h-17V28z"/>
    <path d="M163 16h16v76h-16z"/>
    <path d="M189 16h16v37l22-37h19l-24 38 26 38h-20l-23-36v36h-16z"/>
    <path d="M261 28h-18v-12h53v12h-18v64h-17V28z"/>
    <path d="M306 54c0-22 14-40 35-40s35 18 35 40-14 40-35 40-35-18-35-40zm52 0c0-14-6-27-17-27s-17 13-17 27 6 27 17 27 17-13 17-27z"/>
    <path d="M386 16h16v37l22-37h19l-24 38 26 38h-20l-23-36v36h-16z"/>
  </g>
</svg>