<svg xmlns="http://www.w3.org/2000/svg" viewBox="0 0 280 60" fill="#fff">
  <path d="M25.5 8.8h7.2v32.4c0 8.9-7.2 16.1-16.1 16.1S.5 50.1.5 41.2c0-8.9 7.2-16.1 16.1-16.1 1.5 0 2.9.2 4.2.6v7.4c-1.3-.6-2.7-.8-4.2-.8-5 0-9.1 4.1-9.1 9.1s4.1 9.1 9.1 9.1 9.1-4.1 9.1-9.1V8.8z"/>
  <path d="M25.5 8.8h7.2c0 6.7 5.4 12.1 12.1 12.1v7.2c-4.6 0-8.9-1.6-12.1-4.4v18.5c0 8.9-7.2 16.1-16.1 16.1S.5 50.1.5 41.2c0-8.9 7.2-16.1 16.1-16.1 1.5 0 2.9.2 4.2.6v7.4c-1.3-.6-2.7-.8-4.2-.8-5 0-9.1 4.1-9.1 9.1s4.1 9.1 9.1 9.1 9.1-4.1 9.1-9.1V8.8z" fill="#25F4EE"/>
  <path d="M27.7 6.6h7.2c0 6.7 5.4 12.1 12.1 12.1v7.2c-4.6 0-8.9-1.6-12.1-4.4v18.5c0 8.9-7.2 16.1-16.1 16.1S2.7 48.9 2.7 40c0-8.9 7.2-16.1 16.1-16.1 1.5 0 2.9.2 4.2.6v7.4c-1.3-.6-2.7-.8-4.2-.8-5 0-9.1 4.1-9.1 9.1s4.1 9.1 9.1 9.1 9.1-4.1 9.1-9.1V6.6z" fill="#FE2C55"/>
  <text x="58" y="42" font-family="Arial,Helvetica,sans-serif" font-size="28" font-weight="700" fill="#fff">TikTok Shop</text>
</svg>