<svg xmlns="http://www.w3.org/2000/svg" viewBox="0 0 108 30" fill="#fff">
  <path d="M19.3 6.1l-1.2 10.5c-.1.5.3.9.8.9h4.7c.5 0 .9-.4.8-.9L23.2 6.1c-.2-.8-.6-1.5-1.5-1.5h-.9c-.9 0-1.3.7-1.5 1.5zm0 17.8l1.2-10.5c.1-.5-.3-.9-.8-.9h-4.7c-.5 0-.9.4-.8.9l1.2 10.5c.2.8.6 1.5 1.5 1.5h.9c.9 0 1.3-.7 1.5-1.5zm-9.6-13l5.5 9c.3.4.1 1-.4 1.1l-4.1 1.4c-.5.2-.9-.1-1.1-.5L4.3 12.3c-.5-.6-.5-1.4-.1-2l.5-.7c.5-.6 1.2-.7 1.8-.3l3.2 1.6zm19.2 8.2l-5.5-9c-.3-.4-.1-1 .4-1.1l4.1-1.4c.5-.2.9.1 1.1.5l5.3 9.6c.5.6.5 1.4.1 2l-.5.7c-.5.6-1.2.7-1.8.3l-3.2-1.6zm-15.5 2l5.5-9c.3-.4.1-1-.4-1.1l-4.1-1.4c-.5-.2-.9.1-1.1.5L8 19.7c-.5.6-.5 1.4-.1 2l.5.7c.5.6 1.2.7 1.8.3l3.2-1.6zM28.6 13l-5.5 9c-.3.4-.1 1 .4 1.1l4.1 1.4c.5.2.9-.1 1.1-.5l5.3-9.6c.5-.6.5-1.4.1-2l-.5-.7c-.5-.6-1.2-.7-1.8-.3L28.6 13z" fill="#FFC220"/>
  <path d="M43 11.8l-2.8 10.4-2.8-10.4h-3l-2.6 10.4-2.8-10.4h-2.8l4 14h3l2.7-10.3L38.6 25.8h3l4-14H43zm5.2 3.8c.2-1.8 1.3-3.2 3.2-3.2s2.7 1.2 2.9 3.2h-6.1zm8.8 2.3V17c0-3.6-1.9-5.6-5.6-5.6-3.9 0-6 2.8-6 7.2 0 4.6 2.3 7.4 6.3 7.4 2.4 0 4-1 5.2-2.6l-1.8-1.4c-.8 1-2 1.8-3.3 1.8-2.3 0-3.5-1.5-3.6-3.7h8.8zm2.9-13.5V25.6h2.7V4.4h-2.7zM65 11.4c-2 0-3.3 1.1-4.1 2.4v-2h-2.7V25.6h2.7v-7.4c0-2.8 1.3-5 3.5-5 1.9 0 2.7 1.2 2.7 3.5v8.9h2.7v-9.3c0-3.3-1.8-4.9-4.8-4.9zm14 0c-2 0-3.3 1.1-4.1 2.4v-2h-2.7V25.6H75v-7.4c0-2.8 1.3-5 3.5-5 1.9 0 2.7 1.2 2.7 3.5v8.9h2.7v-9.3c0-3.3-1.8-4.9-4.8-4.9zm8.9 6.2c.2-1.8 1.3-3.2 3.2-3.2s2.7 1.2 2.9 3.2h-6.1zm8.8 2.3V17c0-3.6-1.9-5.6-5.6-5.6-3.9 0-6 2.8-6 7.2 0 4.6 2.3 7.4 6.3 7.4 2.4 0 4-1 5.2-2.6l-1.8-1.4c-.8 1-2 1.8-3.3 1.8-2.3 0-3.5-1.5-3.6-3.7h8.8zm3.8-6.1v-2h-2.4v-4h-2.7v4h-1.7v2h1.7v9.3c0 2.6 1.3 3.5 3.5 3.5.9 0 1.8-.3 2.4-.6l-.7-2.1c-.4.2-.9.4-1.3.4-.8 0-1.2-.5-1.2-1.6v-9h2.4zm-2.9-2v-.5c.2-1.5.7-2.6 1.9-2.6.6 0 1.2.2 1.2.2l.6-2.2s-.8-.3-1.9-.3c-1.4 0-2.5.5-3.3 1.5-.8 1-1.3 2.2-1.5 3.9h-1.5v2h1.3z"/>
</svg>