<svg xmlns="http://www.w3.org/2000/svg" viewBox="0 0 500 120">
  <g fill="#0071CE">
    <path d="M42.4 35.8L30.6 79.5 18.3 35.8H5L21.5 95.2h17.5L55.5 35.8zM77.2 35.8L65.4 79.5 53.1 35.8H39.8L56.3 95.2h17.5L90.3 35.8zM121.4 35.8h-12v3.8c-4.2-3.6-9.5-5.4-16-5.4-16.1 0-27.5 12.5-27.5 30.8s11.4 31.8 27.5 31.8c6.5 0 11.8-1.8 16-5.4v3.8h12V35.8zm-25.4 49c-10.2 0-18-7.8-18-19s7.8-18 18-18c10.2 0 17 7.8 17 18s-6.8 19-17 19z"/>
    <path d="M140.8 13.8h-12v81.4h12zM227 35.8c-7.5 0-13.5 3-17.5 8-3.5-5.2-9.2-8-16.2-8-6.8 0-11.5 3-14.5 7v-7h-12v59.4h12V63.8c0-9.2 5.2-16.2 12.8-16.2 6.5 0 10.2 4.5 10.2 13V95.2h12V63.8c0-9.2 5.2-16.2 12.8-16.2 6.5 0 10.2 4.5 10.2 13V95.2h12V57.8c0-15.2-8.5-22-21.8-22z"/>
    <path d="M282.4 35.8h-12v3.8c-4.2-3.6-9.5-5.4-16-5.4-16.1 0-27.5 12.5-27.5 30.8s11.4 31.8 27.5 31.8c6.5 0 11.8-1.8 16-5.4v3.8h12V35.8zm-25.4 49c-10.2 0-18-7.8-18-19s7.8-18 18-18c10.2 0 17 7.8 17 18s-6.8 19-17 19z"/>
    <path d="M316.4 34.2c-5 0-9.5 2-13 6.5v-5h-12v59.4h12V64.8c0-10.2 5.5-16.5 13-16.5V34.2z"/>
    <path d="M341.4 47.8V35.8h-8v-14h-12v14h-6.5v12h6.5v33c0 10.5 5 15 14 15 3.2 0 6-.6 8-1.5l-2.5-10.5c-1 .4-2.2.5-3 .5-2.5 0-4.5-1-4.5-5V47.8h8z"/>
  </g>
  <g fill="#FFC220" transform="translate(365, 15)">
    <path d="M26.5 0v42c0 2-1.4 3-3 3h-3c-1.7 0-3-1-3-3V0c0-1 .5-2 1.5-2.5l3.5-1.8c1-.5 2-.5 2.8 0l1.5.8c.5.3.7 1 .7 1.5V0z" transform="rotate(0, 22, 45)"/>
    <path d="M26.5 0v42c0 2-1.4 3-3 3h-3c-1.7 0-3-1-3-3V0c0-1 .5-2 1.5-2.5l3.5-1.8c1-.5 2-.5 2.8 0l1.5.8c.5.3.7 1 .7 1.5V0z" transform="rotate(60, 22, 45)"/>
    <path d="M26.5 0v42c0 2-1.4 3-3 3h-3c-1.7 0-3-1-3-3V0c0-1 .5-2 1.5-2.5l3.5-1.8c1-.5 2-.5 2.8 0l1.5.8c.5.3.7 1 .7 1.5V0z" transform="rotate(120, 22, 45)"/>
    <path d="M26.5 0v42c0 2-1.4 3-3 3h-3c-1.7 0-3-1-3-3V0c0-1 .5-2 1.5-2.5l3.5-1.8c1-.5 2-.5 2.8 0l1.5.8c.5.3.7 1 .7 1.5V0z" transform="rotate(180, 22, 45)"/>
    <path d="M26.5 0v42c0 2-1.4 3-3 3h-3c-1.7 0-3-1-3-3V0c0-1 .5-2 1.5-2.5l3.5-1.8c1-.5 2-.5 2.8 0l1.5.8c.5.3.7 1 .7 1.5V0z" transform="rotate(240, 22, 45)"/>
    <path d="M26.5 0v42c0 2-1.4 3-3 3h-3c-1.7 0-3-1-3-3V0c0-1 .5-2 1.5-2.5l3.5-1.8c1-.5 2-.5 2.8 0l1.5.8c.5.3.7 1 .7 1.5V0z" transform="rotate(300, 22, 45)"/>
  </g>
</svg>